<svg xmlns="http://www.w3.org/2000/svg" width="100" height="100" viewBox="0 0 100 100">
  <g id="Group_268" data-name="Group 268" transform="translate(-66 -498)">
    <rect id="Rectangle_55" data-name="Rectangle 55" width="100" height="100" rx="15" transform="translate(66 498)" fill="#bf202f"/>
    <path id="Icon_awesome-check" data-name="Icon awesome-check" d="M25.473,59.407,1.1,35.032a3.75,3.75,0,0,1,0-5.3l5.3-5.3a3.75,3.75,0,0,1,5.3,0l16.42,16.42L63.3,5.676a3.75,3.75,0,0,1,5.3,0l5.3,5.3a3.75,3.75,0,0,1,0,5.3L30.777,59.407A3.75,3.75,0,0,1,25.473,59.407Z" transform="translate(78.6 515)" fill="#fff"/>
  </g>
</svg>
